<?xml version="1.0" encoding="utf-8"?>
<!-- Generator: Adobe Illustrator 24.3.0, SVG Export Plug-In . SVG Version: 6.00 Build 0)  -->
<svg version="1.1" id="Layer_1" xmlns="http://www.w3.org/2000/svg" xmlns:xlink="http://www.w3.org/1999/xlink" x="0px" y="0px"
	 viewBox="0 0 24 24" style="enable-background:new 0 0 24 24;" xml:space="preserve">
<style type="text/css">
	.st0{fill:#FFFFFF;stroke:#000000;stroke-width:0.7;stroke-miterlimit:10;}
</style>
<path class="st0" d="M12,12V7.93h-0.8v4.15c0,0.33,0.27,0.59,0.59,0.59h0.49c0.33,0,0.59-0.27,0.59-0.59v-4.5
	c0-0.33-0.27-0.59-0.59-0.59h-1.34c-0.33,0-0.59,0.27-0.59,0.59v5.74c0,0.33,0.27,0.59,0.59,0.59h2.27c0.33,0,0.59-0.27,0.59-0.59
	V6.4c0-0.33-0.27-0.59-0.59-0.59H9.96c-0.33,0-0.59,0.27-0.59,0.59v7.52"/>
</svg>
