<svg id="Layer_2" data-name="Layer 2" xmlns="http://www.w3.org/2000/svg" viewBox="0 0 19.49 13.44"><defs><style>.cls-1{fill:#fff;stroke:#1d1d1b;stroke-miterlimit:10;stroke-width:0.7px;}</style></defs><path class="cls-1" d="M2.11,19.14s-.1-4.6,6.38-6.09,6.72,6.09,6.72,6.09" transform="translate(-1.76 -5.72)"/><path class="cls-1" d="M10.27,9.94A2.22,2.22,0,0,1,7.5,11.57a2.53,2.53,0,0,1-2-3.51c.5-.69,1.19-2,2.92-1.38S10.27,9.94,10.27,9.94Z" transform="translate(-1.76 -5.72)"/><path class="cls-1" d="M12.93,13.81a5.27,5.27,0,0,1,5.3,0c2.87,1.62,2.67,5.33,2.67,5.33" transform="translate(-1.76 -5.72)"/><path class="cls-1" d="M14.77,9.94S13,8.8,13.78,7.42s2.41-1.74,3.14-.9,2.1,1,1.36,2.34S14.77,9.94,14.77,9.94Z" transform="translate(-1.76 -5.72)"/></svg>