<svg id="Layer_2" data-name="Layer 2" xmlns="http://www.w3.org/2000/svg" viewBox="0 0 22 21.19"><defs><style>.cls-1{fill:#fff;stroke:#1d1d1b;stroke-miterlimit:10;stroke-width:0.7px;}</style></defs><path class="cls-1" d="M4.32,6.5,3,3.88,5.61,2.45,7,4.82,10.9,3.58,12,1.11l3.85.49-1,3.22L18,7.24l3.76-.79a33.48,33.48,0,0,1,.35,4.25c-.2-.1-3.91,0-3.91,0l-.05,3.07L21.38,15l-1.83,2.72L16.49,16.1l-2.33,2.42L16.54,21l-5.85.49L11,19l-4-.15L5.31,21,2.49,18.42l3-2.57L4.13,12.73l-3.27.2.4-3.66,3.06,0Z" transform="translate(-0.47 -0.73)"/><path class="cls-1" d="M6.1,12S7,7.24,11.45,7.74,15.25,12,15.25,12s.43,4.29-4.56,4.09S6.1,12,6.1,12Z" transform="translate(-0.47 -0.73)"/></svg>